# xmcd
# 
# Track frame offsets:
#     150
#     15171
#     28664
#     48292
#     69105
#     90277
#     104459
#     121333
#     139856
#     154070
# 
# Disc length: 2262
# 
# Revision: 2
# Processed by: cddbd v1.5.2PL0 Copyright (c) Steve Scherf et al.
# Submitted via: fre:ac v1.0.31
# 
DISCID=6e08d40a
DTITLE=Texas To The Bone - Texas To The Bone Volume 1
DYEAR=2002
DGENRE=Country
TTITLE0=Pat Green and Cory Morrow - Are You Sure Hank Done It This Way
TTITLE1=Shaver, Kristofferson, Nelson, Jennings - Honky Tonk Heroes (Like Me)
TTITLE2=Cooder Graw - The Legend of Millie Stacey
TTITLE3=Ben Atkins - Country Girl Angel
TTITLE4=Pat Haney - Ghost Of Things To Come
TTITLE5=Bobby Boyd - Honky Tonk Tree
TTITLE6=Davin James - Rolling Dice
TTITLE7=Mark David Manders - Three Fingers Tequila
TTITLE8=Max Stalling - Dime Box, TX
TTITLE9=Bleu Edmondson - Travelin' Man
EXTD=YEAR: 2002 ID3G: 2
EXTT0=
EXTT1=
EXTT2=
EXTT3=
EXTT4=
EXTT5=
EXTT6=
EXTT7=
EXTT8=
EXTT9=
PLAYORDER=
